<svg xmlns="http://www.w3.org/2000/svg" xmlns:xlink="http://www.w3.org/1999/xlink" width="48" height="48" version="1.1"><defs><linearGradient id="linearGradient4202"><stop offset="0" style="stop-color:#316204"/><stop offset="1" style="stop-color:#0f1d01"/></linearGradient><radialGradient id="radialGradient4187" cx="24.144" cy="44.155" r="21.5" fx="24.144" fy="44.155" gradientTransform="matrix(2.9639692,-0.00646702,0.00359533,1.6478076,-47.545953,-30.346477)" gradientUnits="userSpaceOnUse" xlink:href="#linearGradient4202"/></defs><path style="opacity:.2" d="m 4.846,1.9478 c -3.4745616,0 -4.7497,2.35231 -4.74379,4.7102 l 0.1002,39.895 h 47.8 L 47.90221,6.658 C 47.896283,4.29809 46.40125,1.9478 43.06,1.9478 Z"/><path style="opacity:.3" d="m 4.8506,2.4478 c -2.75599,0 -4.24339,1.7521 -4.24339,4.4102 v 38.695 h 46.6001 V 6.858 c 0,-2.44299 -1.37483,-4.4102 -4.44331,-4.4102 z"/><path style="fill:#d4cfc4" d="m 4.743,3.1484 c -2.45004,0 -3.43452,1.8516 -3.43452,3.60868 v 38.0948 h 45.1828 v -38.095 c 0,-1.71132 -1.22595,-3.60895 -3.83428,-3.60892 Z"/><path style="fill:url(#radialGradient4187);fill-rule:evenodd" d="M 6.275,5.168 C 4.342,5.1625464 3.5005,6.025536 3.5005,7.844 V 42.5308 H 44.5 V 7.844 c 0,-1.63914 -0.937607,-2.57101 -2.674,-2.5757 z"/><g style="fill:none"><path style="stroke:#4cff4c;stroke-width:2.3" d="m 6.0026,24.105 c 0,0 3.39825,-16.3229 9.4,-16.405 6.00175,-0.082131 11.4361,31.9888 17.2,32 5.7639,0.01116 9.4,-15.695 9.4,-15.695"/><g style="stroke:#0f0"><path d="m 4,24.1181 40,-.2362"/><path d="m 24,6 v 36"/></g></g><g style="stroke-width:.409"><rect width="11.455" height="11.455" x="18.273" y="18.273" rx="1.227" style="fill:#bfbfbf"/><g style="fill:#fff"><rect width="2.864" height="1.636" x="15" y="19.818" rx=".818" ry=".818"/><path d="m 16.6364,19.818 h 1.22727 v 1.63636 h -1.22727 z"/><rect width="2.864" height="1.636" x="15" y="23.182" rx=".818" ry=".818"/><path d="m 16.6364,23.1818 h 1.22727 v 1.63636 h -1.22727 z"/><rect width="2.864" height="1.636" x="15" y="26.545" rx=".818" ry=".818"/><path d="m 16.6364,26.545 h 1.22727 v 1.63636 h -1.22727 z"/><rect width="2.864" height="1.636" x="-33" y="19.818" rx=".818" ry=".818" transform="scale(-1,1)"/><path d="m 31.3636,19.818 h -1.22727 v 1.63636 h 1.22727 z"/><rect width="2.864" height="1.636" x="-33" y="23.182" rx=".818" ry=".818" transform="scale(-1,1)"/><path d="m 31.3636,23.1818 h -1.22727 v 1.63636 h 1.22727 z"/><rect width="2.864" height="1.636" x="-33" y="26.545" rx=".818" ry=".818" transform="scale(-1,1)"/><path d="m 31.3636,26.545 h -1.22727 v 1.63636 h 1.22727 z"/><rect width="2.864" height="1.636" x="15" y="19.818" rx=".818" ry=".818" transform="matrix(0,1,1,0,0,0)"/><path d="m 19.818,16.6364 v 1.22727 h 1.63636 v -1.22727 z"/><rect width="2.864" height="1.636" x="15" y="23.182" rx=".818" ry=".818" transform="matrix(0,1,1,0,0,0)"/><path d="m 23.1818,16.6364 v 1.22727 h 1.63636 v -1.22727 z"/><rect width="2.864" height="1.636" x="15" y="26.545" rx=".818" ry=".818" transform="matrix(0,1,1,0,0,0)"/><path d="m 26.545,16.6364 v 1.22727 h 1.63636 v -1.22727 z"/><rect width="2.864" height="1.636" x="-33" y="19.818" rx=".818" ry=".818" transform="rotate(-90)"/><path d="m 19.818,31.3636 v -1.22727 h 1.63636 v 1.22727 z"/><rect width="2.864" height="1.636" x="-33" y="23.182" rx=".818" ry=".818" transform="rotate(-90)"/><path d="m 23.1818,31.3636 v -1.22727 h 1.63636 v 1.22727 z"/><rect width="2.864" height="1.636" x="-33" y="26.545" rx=".818" ry=".818" transform="rotate(-90)"/><path d="m 26.545,31.3636 v -1.22727 h 1.63636 v 1.22727 z"/></g></g></svg>